<?xml version="1.0" encoding="UTF-8"?>
<svg width="36px" height="26px" viewBox="0 0 36 26" version="1.1" xmlns="http://www.w3.org/2000/svg" xmlns:xlink="http://www.w3.org/1999/xlink">
    <!-- Generator: Sketch 57.1 (83088) - https://sketch.com -->
    <title>Fill 1</title>
    <desc>Created with Sketch.</desc>
    <g id="Page-1" stroke="none" stroke-width="1" fill="none" fill-rule="evenodd">
        <g id="8082-localization-component-dsk-no-loc" transform="translate(-607.000000, -2805.000000)" fill="#499bea">
            <g id="value-prop-6" transform="translate(0.000000, 2342.000000)">
                <g id="Group" transform="translate(171.000000, 226.000000)">
                    <g id="row-2" transform="translate(0.000000, 226.000000)">
                        <g id="Group-19" transform="translate(430.000000, 0.000000)">
                            <g id="Group-21">
                                <path d="M31.0457143,15.8747857 C33.1354286,17.9105 34.2857143,20.6362143 34.2857143,23.5505 C34.2857143,26.3987857 33.1774286,29.0825 31.1682857,31.1062143 C31.0834286,31.1893571 30.9728571,31.2322143 30.8631429,31.2322143 C30.7525714,31.2322143 30.6437143,31.1902143 30.5605714,31.1070714 C30.3925714,30.9407857 30.3908571,30.6699286 30.5588571,30.5002143 C32.4102857,28.6402143 33.4285714,26.1716429 33.4285714,23.5505 C33.4285714,20.8693571 32.37,18.3613571 30.4482857,16.4885 C30.2777143,16.3230714 30.2751429,16.0522143 30.4397143,15.8825 C30.6051429,15.7136429 30.8768571,15.7093571 31.0457143,15.8747857 M16.608,30.5259286 C16.776,30.6922143 16.776,30.9639286 16.608,31.1319286 C16.5257143,31.2150714 16.4142857,31.2570714 16.3054286,31.2570714 C16.1957143,31.2570714 16.086,31.2150714 16.002,31.1319286 C13.974,29.1073571 12.8571429,26.4150714 12.8571429,23.5505 C12.8571429,20.6876429 13.9714286,17.9979286 15.9951429,15.9750714 C16.1631429,15.8070714 16.434,15.8070714 16.6011429,15.9750714 C16.7691429,16.1422143 16.7691429,16.4139286 16.6011429,16.5810714 C14.7402857,18.4419286 13.7142857,20.9165 13.7142857,23.5505 C13.7142857,26.1862143 14.742,28.6625 16.608,30.5259286 M41.1428571,23.5505 C41.1428571,28.2322143 39.3214286,32.6379286 36.0162857,35.9559286 C35.9322857,36.0382143 35.8217143,36.0810714 35.712,36.0810714 C35.6022857,36.0810714 35.4934286,36.0399286 35.4102857,35.9567857 C35.2422857,35.7887857 35.2422857,35.5179286 35.4085714,35.3507857 C38.5542857,32.1939286 40.2857143,28.0033571 40.2857143,23.5505 C40.2857143,19.0865 38.5474286,14.8890714 35.3897143,11.7322143 C35.2225714,11.5650714 35.2225714,11.2933571 35.3897143,11.1262143 C35.5577143,10.9582143 35.8285714,10.9582143 35.9957143,11.1262143 C39.3154286,14.4450714 41.1428571,18.8567857 41.1428571,23.5505 M11.7582857,35.3747857 C11.9254286,35.5419286 11.9254286,35.8136429 11.7582857,35.9807857 C11.6742857,36.0647857 11.5654286,36.1067857 11.4557143,36.1067857 C11.3468571,36.1067857 11.2362857,36.0647857 11.1522857,35.9807857 C7.83,32.6619286 6,28.2467857 6,23.5505 C6,18.8576429 7.82742857,14.4450714 11.1471429,11.1253571 C11.3142857,10.9582143 11.5851429,10.9582143 11.7531429,11.1253571 C11.9211429,11.2925 11.9211429,11.5642143 11.7531429,11.7313571 C8.59628571,14.8890714 6.85714286,19.0865 6.85714286,23.5505 C6.85714286,28.0179286 8.598,32.2170714 11.7582857,35.3747857 M23.5714286,26.5505 C21.918,26.5505 20.5714286,25.2056429 20.5714286,23.5505 C20.5714286,21.8962143 21.918,20.5505 23.5714286,20.5505 C25.2257143,20.5505 26.5714286,21.8962143 26.5714286,23.5505 C26.5714286,25.2056429 25.2257143,26.5505 23.5714286,26.5505 M23.5714286,19.6933571 C21.4448571,19.6933571 19.7142857,21.4239286 19.7142857,23.5505 C19.7142857,25.6779286 21.4448571,27.4076429 23.5714286,27.4076429 C25.6988571,27.4076429 27.4285714,25.6779286 27.4285714,23.5505 C27.4285714,21.4239286 25.6988571,19.6933571 23.5714286,19.6933571" id="Fill-1"></path>
                            </g>
                        </g>
                    </g>
                </g>
            </g>
        </g>
    </g>
</svg>