<?xml version="1.0" encoding="UTF-8"?>
<svg width="35px" height="36px" viewBox="0 0 35 36" version="1.1" xmlns="http://www.w3.org/2000/svg" xmlns:xlink="http://www.w3.org/1999/xlink">
    <!-- Generator: Sketch 57.1 (83088) - https://sketch.com -->
    <title>Fill 1</title>
    <desc>Created with Sketch.</desc>
    <g id="Page-1" stroke="none" stroke-width="1" fill="none" fill-rule="evenodd">
        <g id="8082-localization-component-dsk" transform="translate(-1039.000000, -2580.000000)" fill="#499bea">
            <g id="value-prop-6" transform="translate(0.000000, 2348.000000)">
                <g id="Group" transform="translate(171.000000, 226.000000)">
                    <g id="row-1">
                        <g id="Group-15" transform="translate(861.000000, 0.000000)">
                            <g id="Group-14-Copy-5">
                                <g id="Group-3" transform="translate(7.000000, 6.000000)">
                                    <path d="M10.7112625,7.349825 C10.5587694,7.349825 10.4092024,7.27420452 10.3176267,7.13383978 C10.172715,6.91056954 10.2308726,6.60842964 10.4479076,6.45886457 C12.5380544,5.02067317 14.9765812,4.26056935 17.5,4.26056935 C20.0238178,4.26056935 22.4612806,5.02026275 24.5496983,6.45794112 C24.7669993,6.60736938 24.8248908,6.90950928 24.6796134,7.13291632 C24.5343026,7.35618656 24.2405555,7.41638197 24.0237532,7.26654329 C22.0912536,5.93656681 19.8353794,5.23354602 17.5,5.23354602 C15.1647868,5.23354602 12.9079816,5.93694303 10.9738526,7.26784296 C10.8931503,7.3232501 10.8017076,7.349825 10.7112625,7.349825 L10.7112625,7.349825 Z M34.3841419,4.41352041 L34.0331018,9.61412996 C33.9943966,10.1953235 33.72765,10.6943981 33.3014606,10.9829256 C33.042894,11.1580395 32.7386725,11.2471698 32.4195874,11.2471698 C32.2133925,11.2471698 32.0002147,11.2096845 31.7902291,11.1337904 L27.0032216,9.41835808 C26.7569249,9.33001448 26.6263781,9.05280779 26.7125004,8.79916623 C26.7981573,8.54514846 27.067298,8.41022182 27.3148915,8.49986509 L32.1025308,10.215571 C32.1457582,10.2312697 32.1878883,10.239444 32.2301182,10.2489179 C29.4133513,4.59968154 23.6956902,0.97297667 17.5,0.97297667 C11.3074688,0.97297667 5.57278267,4.60980531 2.75950719,10.265882 C2.82827208,10.2569553 2.89863306,10.2416329 2.97092265,10.215571 L7.75879465,8.49986509 C8.00485857,8.41087166 8.27526288,8.54542207 8.36078672,8.79916623 C8.4470421,9.05280779 8.31649521,9.33001448 8.06983275,9.41835808 L3.28282531,11.134064 C3.07307244,11.2096845 2.86065941,11.2471698 2.65406547,11.2471698 C2.33534618,11.2471698 2.03075894,11.1580395 1.77222556,10.9829256 C1.34600293,10.6943981 1.07902357,10.1955971 1.03955359,9.61440358 L0.689178508,4.41352041 C0.67102298,4.14551404 0.867774366,3.91304348 1.12833611,3.89474544 C1.38510715,3.87384806 1.61457839,4.07844404 1.63273391,4.3463478 L1.98310899,9.54692316 C1.9858689,9.58704203 1.99441463,9.62295406 2.00089875,9.66057619 C5.00344394,3.77538069 11.0135886,0 17.5,0 C24.0350921,0 30.0663185,3.816252 33.0515062,9.7649947 C33.0703933,9.69703545 33.0843923,9.62490357 33.0896794,9.54692316 L33.4407195,4.3463478 C33.458609,4.07844404 33.6913389,3.872822 33.945084,3.89474544 C34.205546,3.91304348 34.4026632,4.14551404 34.3841419,4.41352041 L34.3841419,4.41352041 Z M17.5,36 C7.85060309,36 0,27.9254702 0,18 C0,17.7313096 0.211914244,17.5135117 0.473008022,17.5135117 C0.734201556,17.5135117 0.945949541,17.7313096 0.945949541,18 C0.945949541,27.3889102 8.37225862,35.0270233 17.5,35.0270233 C26.6281404,35.0270233 34.0540505,27.3889102 34.0540505,18 C34.0540505,17.7313096 34.2659315,17.5135117 34.5270252,17.5135117 C34.7882188,17.5135117 35,17.7313096 35,18 C35,27.9254702 27.1497627,36 17.5,36 L17.5,36 Z M23.3604447,25.4530806 C23.3604447,25.6342141 23.2120083,25.7875414 23.0365714,25.7875414 L20.3168999,25.7875414 L20.3168999,21.7246592 C20.3168999,21.1849869 19.88958,20.7459708 19.3647655,20.7459708 L15.6339709,20.7459708 C15.1090567,20.7459708 14.6819695,21.1849869 14.6819695,21.7246592 L14.6819695,23.4526436 C14.6819695,23.7211972 14.8937175,23.939132 15.1549443,23.939132 C15.4160048,23.939132 15.627919,23.7211972 15.627919,23.4526436 L15.6339709,21.7189475 L19.3709836,21.7246592 L19.3709836,25.7875414 L11.9635616,25.7875414 C11.788025,25.7875414 11.6395553,25.6342141 11.6395553,25.4530806 L11.6444766,15.7033742 L17.1135466,10.3764227 C17.3214041,10.1630026 17.6755699,10.1553756 17.901583,10.3891458 L23.3629718,15.7098726 L23.3604447,25.4530806 Z M26.7390022,17.6591777 L18.5623644,9.69327324 C18.0013386,9.11078007 17.0020863,9.1149185 16.4542948,9.67901103 L8.26103107,17.6591777 C8.07132909,17.8437998 8.06298286,18.1516514 8.24287555,18.3467734 C8.33591431,18.4478059 8.46090814,18.498801 8.58616798,18.498801 C8.70298184,18.498801 8.81989546,18.4548173 8.91143789,18.3654477 L10.698128,16.6252532 L10.693639,25.4530806 C10.693639,26.173989 11.2633435,26.760518 11.9635616,26.760518 L23.0365714,26.760518 C23.7366897,26.760518 24.3064275,26.173989 24.3064275,25.4530806 L24.3086886,16.6312043 L26.0886951,18.3654477 C26.2771335,18.5495225 26.5770655,18.5418613 26.7575235,18.3467734 C26.9367511,18.1516514 26.9287042,17.8437998 26.7390022,17.6591777 L26.7390022,17.6591777 Z" id="Fill-1"></path>
                                </g>
                            </g>
                        </g>
                    </g>
                </g>
            </g>
        </g>
    </g>
</svg>