<?xml version="1.0" encoding="UTF-8"?>
<svg width="36px" height="36px" viewBox="0 0 36 36" version="1.1" xmlns="http://www.w3.org/2000/svg" xmlns:xlink="http://www.w3.org/1999/xlink">
    <!-- Generator: Sketch 57.1 (83088) - https://sketch.com -->
    <title>Group 5</title>
    <desc>Created with Sketch.</desc>
    <g id="Page-1" stroke="none" stroke-width="1" fill="none" fill-rule="evenodd">
        <g id="8082-localization-component-dsk-no-loc" transform="translate(-177.000000, -2574.000000)">
            <g id="value-prop-6" transform="translate(0.000000, 2342.000000)">
                <g id="Group" transform="translate(171.000000, 226.000000)">
                    <g id="row-1">
                        <g id="Group-12">
                            <g id="Group-14">
                                <g id="Group-5" transform="translate(6.000000, 6.000000)">
                                    <path d="M20.9213143,35.3429143 C20.6590286,35.3429143 20.4018857,35.2100571 20.1970286,34.9674857 L18.1998857,32.5863429 C18.1416,32.5152 18.0738857,32.4783429 18.0018857,32.4783429 L18.0010286,32.4783429 C17.9290286,32.4783429 17.8578857,32.5160571 17.7987429,32.5863429 L15.8024571,34.9674857 C15.5624571,35.2537714 15.2496,35.3849143 14.9436,35.3309143 C14.6376,35.2769143 14.3898857,35.0454857 14.2604571,34.6957714 L13.1993143,31.7746286 C13.1178857,31.5517714 13.2327429,31.3057714 13.4556,31.2252 C13.6776,31.1454857 13.9236,31.2586286 14.0050286,31.4814857 L15.0670286,34.4017714 C15.0773143,34.4300571 15.0867429,34.4506286 15.0961714,34.4660571 C15.1098857,34.4549143 15.1270286,34.4377714 15.1467429,34.4154857 L17.1430286,32.0352 C17.3641714,31.7720571 17.6761714,31.6212 18.0010286,31.6212 L18.0036,31.6212 C18.3276,31.6220571 18.6387429,31.7729143 18.8590286,32.0369143 L20.8536,34.4154857 C20.8716,34.4377714 20.8887429,34.4549143 20.9033143,34.4660571 C20.9118857,34.4506286 20.9221714,34.4300571 20.9324571,34.4009143 L21.9944571,31.4814857 C22.1118857,31.1600571 22.3536,30.9106286 22.6587429,30.8000571 C22.9656,30.6886286 23.3093143,30.7237714 23.6058857,30.8969143 L26.2964571,32.4492 C26.3213143,32.4646286 26.3427429,32.4732 26.3598857,32.4792 C26.3633143,32.4629143 26.3650286,32.4389143 26.3650286,32.4097714 L26.3650286,29.3026286 C26.3650286,28.9597714 26.5073143,28.6434857 26.7558857,28.4343429 C27.0044571,28.2260571 27.3413143,28.1386286 27.6781714,28.2003429 L30.7373143,28.7412 C30.7656,28.7463429 30.7750286,28.7472 30.8076,28.7480571 C30.8041714,28.7300571 30.7990286,28.7069143 30.7887429,28.6794857 L29.7250286,25.7592 C29.6084571,25.4360571 29.6350286,25.0906286 29.7970286,24.8103429 C29.9590286,24.5292 30.2453143,24.3337714 30.5830286,24.2746286 L33.6421714,23.7363429 C33.6713143,23.7303429 33.6936,23.7243429 33.7107429,23.7183429 C33.7013143,23.7029143 33.6893143,23.6823429 33.6687429,23.6600571 L31.6741714,21.2814857 C31.4521714,21.0192 31.3587429,20.6849143 31.4144571,20.3652 C31.4710286,20.0463429 31.6733143,19.7643429 31.9707429,19.5937714 L34.6604571,18.0397714 C34.6870286,18.0252 34.7050286,18.0114857 34.7196,18.0003429 C34.7050286,17.9883429 34.6878857,17.9746286 34.6613143,17.9600571 L31.9707429,16.4069143 C31.6741714,16.2363429 31.4710286,15.9552 31.4144571,15.6354857 C31.3587429,15.3149143 31.4521714,14.9814857 31.6741714,14.7183429 L33.6696,12.3397714 C33.6893143,12.3166286 33.7021714,12.2969143 33.7107429,12.2814857 C33.6936,12.2754857 33.6713143,12.2686286 33.6421714,12.2634857 L30.5830286,11.7252 C30.2453143,11.6652 29.9590286,11.4697714 29.7961714,11.1894857 C29.6350286,10.9083429 29.6084571,10.5629143 29.7250286,10.2414857 L30.7887429,7.3212 C30.7990286,7.29291429 30.8041714,7.27062857 30.8076,7.25262857 C30.7913143,7.2552 30.7656,7.25348571 30.7373143,7.25948571 L27.6790286,7.79948571 C27.3396,7.85948571 27.0044571,7.77377143 26.7567429,7.56548571 C26.5081714,7.3572 26.3650286,7.04091429 26.3650286,6.69805714 L26.3650286,3.59091429 C26.3650286,3.56091429 26.3633143,3.53777143 26.3598857,3.52062857 C26.3427429,3.52662857 26.3213143,3.53605714 26.2964571,3.55062857 L23.6050286,5.10462857 C23.3093143,5.27605714 22.9638857,5.31034286 22.6587429,5.19977143 C22.3536,5.0892 22.1118857,4.84062857 21.9944571,4.51748571 L20.9324571,1.59805714 C20.9221714,1.57062857 20.9118857,1.55005714 20.9033143,1.53462857 C20.8887429,1.54577143 20.8716,1.56205714 20.8544571,1.58434286 L18.8564571,3.96548571 C18.6387429,4.22691429 18.3276,4.37777143 18.0036,4.37862857 L18.0010286,4.37862857 C17.6761714,4.37862857 17.3641714,4.22862857 17.1430286,3.96548571 L15.1458857,1.58434286 C15.1270286,1.56205714 15.1098857,1.54577143 15.0961714,1.53462857 C15.0867429,1.55005714 15.0773143,1.57062857 15.0661714,1.59891429 L14.0050286,4.51834286 C13.8876,4.84062857 13.6450286,5.0892 13.3398857,5.19977143 C13.0347429,5.3112 12.6893143,5.2752 12.3936,5.10377143 L9.70302857,3.55062857 C9.67817143,3.53605714 9.65588571,3.52662857 9.6396,3.52062857 C9.63617143,3.53777143 9.6336,3.56091429 9.6336,3.59091429 L9.63445714,6.69805714 C9.63445714,7.04091429 9.49217143,7.3572 9.2436,7.56548571 C8.99417143,7.77377143 8.65817143,7.85948571 8.32131429,7.79948571 L5.26131429,7.25948571 C5.23217143,7.25348571 5.20902857,7.25348571 5.19017143,7.25262857 C5.1936,7.27062857 5.1996,7.29377143 5.20988571,7.32205714 L6.2736,10.2414857 C6.39102857,10.5629143 6.36531429,10.9083429 6.20245714,11.1894857 C6.04045714,11.4697714 5.75417143,11.6652 5.41645714,11.7252 L2.35645714,12.2634857 C2.32817143,12.2686286 2.30502857,12.2754857 2.28874286,12.2814857 C2.29645714,12.2969143 2.31017143,12.3157714 2.32988571,12.3380571 L4.32617143,14.7192 C4.54645714,14.9814857 4.64074286,15.3157714 4.58417143,15.6354857 C4.52845714,15.9552 4.32617143,16.2363429 4.0296,16.4069143 L1.33817143,17.9600571 C1.31245714,17.9746286 1.2936,17.9883429 1.27988571,18.0003429 C1.2936,18.0114857 1.31245714,18.0252 1.33817143,18.0397714 L4.0296,19.5937714 C4.32702857,19.7652 4.52845714,20.0463429 4.58417143,20.3652 C4.64074286,20.6849143 4.54645714,21.0183429 4.32617143,21.2814857 L2.33074286,23.6609143 C2.31017143,23.6832 2.29731429,23.7029143 2.28874286,23.7183429 C2.30502857,23.7243429 2.32817143,23.7312 2.35645714,23.7363429 L5.4156,24.2746286 C5.75417143,24.3337714 6.04045714,24.5292 6.20245714,24.8103429 C6.36531429,25.0906286 6.39102857,25.4360571 6.2736,25.7592 L5.20902857,28.6794857 C5.19788571,28.7103429 5.19274286,28.7352 5.19017143,28.7532 C5.20388571,28.7480571 5.22874286,28.7472 5.26217143,28.7412 L8.32217143,28.2003429 C8.65902857,28.1394857 8.99502857,28.2260571 9.2436,28.4343429 C9.49217143,28.6434857 9.63445714,28.9597714 9.63445714,29.3026286 L9.6336,32.4097714 C9.6336,32.6463429 9.4416,32.8383429 9.20502857,32.8383429 C8.96845714,32.8383429 8.77645714,32.6463429 8.77645714,32.4097714 L8.77731429,29.3026286 C8.77731429,29.2126286 8.74731429,29.1372 8.69245714,29.0909143 C8.63845714,29.0454857 8.5596,29.0292 8.47131429,29.0437714 L5.41045714,29.5846286 C5.0436,29.6497714 4.71874286,29.5494857 4.51902857,29.3129143 C4.31931429,29.0746286 4.27645714,28.7377714 4.40331429,28.3863429 L5.46874286,25.4669143 C5.49874286,25.3820571 5.49617143,25.3006286 5.46017143,25.2389143 C5.42417143,25.1763429 5.35731429,25.1352 5.26731429,25.1180571 L2.20817143,24.5797714 C1.8396,24.5154857 1.56874286,24.3114857 1.46245714,24.0192 C1.35617143,23.7269143 1.43331429,23.3960571 1.67331429,23.1097714 L3.66874286,20.7303429 C3.72702857,20.6609143 3.75274286,20.5837714 3.74074286,20.5143429 C3.72788571,20.4440571 3.67902857,20.3806286 3.60102857,20.3352 L0.9096,18.7829143 C0.586457143,18.5960571 0.402171429,18.3106286 0.402171429,18.0003429 C0.402171429,17.6892 0.586457143,17.4037714 0.9096,17.2177714 L3.60102857,15.6646286 C3.67988571,15.6192 3.72788571,15.5574857 3.73988571,15.4872 C3.75274286,15.4160571 3.72702857,15.3397714 3.6696,15.2703429 L1.67331429,12.8900571 C1.43331429,12.6054857 1.35617143,12.2737714 1.46245714,11.9814857 C1.56874286,11.6892 1.8396,11.4843429 2.20731429,11.4192 L5.26731429,10.8809143 C5.35645714,10.8654857 5.42502857,10.8226286 5.46017143,10.7609143 C5.49617143,10.6992 5.49874286,10.6186286 5.46874286,10.5346286 L4.40331429,7.61434286 C4.27645714,7.26291429 4.31931429,6.9252 4.51817143,6.68777143 C4.71874286,6.45034286 5.04445714,6.35177143 5.41045714,6.4152 L8.47131429,6.9552 C8.55874286,6.97062857 8.63845714,6.95434286 8.69245714,6.90891429 C8.74731429,6.86262857 8.77731429,6.78805714 8.77731429,6.69805714 L8.77645714,3.59091429 C8.77645714,3.21805714 8.9316,2.91462857 9.20074286,2.75948571 C9.47074286,2.60434286 9.80931429,2.62234286 10.1316,2.80834286 L12.8230286,4.36234286 C12.9010286,4.40777143 12.9807429,4.41891429 13.0467429,4.39491429 C13.1144571,4.37005714 13.1684571,4.31005714 13.1993143,4.2252 L14.2604571,1.30577143 C14.3890286,0.954342857 14.6376,0.722914286 14.9436,0.668914286 C15.2487429,0.614914286 15.5624571,0.747771429 15.8024571,1.0332 L17.7987429,3.41434286 C17.8570286,3.48377143 17.9290286,3.52148571 18.0010286,3.52148571 L18.0018857,3.52148571 C18.0738857,3.52148571 18.1416,3.48462857 18.1990286,3.4152 L20.1970286,1.03405714 C20.4361714,0.748628571 20.7490286,0.615771429 21.0550286,0.668914286 C21.3618857,0.722914286 21.6104571,0.954342857 21.7373143,1.30577143 L22.8001714,4.2252 C22.8310286,4.31005714 22.8841714,4.37005714 22.9510286,4.39491429 C23.0178857,4.41891429 23.0976,4.40777143 23.1756,4.36234286 L25.8678857,2.80834286 C26.1893143,2.62234286 26.5287429,2.60348571 26.7978857,2.75948571 C27.0678857,2.91462857 27.2221714,3.21805714 27.2221714,3.59091429 L27.2221714,6.69805714 C27.2221714,6.78805714 27.2521714,6.86262857 27.3070286,6.90891429 C27.3627429,6.9552 27.4381714,6.97148571 27.5290286,6.9552 L30.5881714,6.4152 C30.9550286,6.35091429 31.2816,6.45034286 31.4804571,6.68862857 C31.6810286,6.92691429 31.7221714,7.26462857 31.5936,7.61434286 L30.5316,10.5346286 C30.5007429,10.6186286 30.5033143,10.6992 30.5384571,10.7609143 C30.5744571,10.8226286 30.6430286,10.8654857 30.7313143,10.8809143 L33.7913143,11.4192 C34.1581714,11.4843429 34.4307429,11.6892 34.5361714,11.9814857 C34.6433143,12.2737714 34.5661714,12.6054857 34.3261714,12.8909143 L32.3307429,15.2703429 C32.2707429,15.3397714 32.2458857,15.4160571 32.2596,15.4863429 C32.2707429,15.5566286 32.3213143,15.6192 32.3984571,15.6646286 L35.0890286,17.2177714 C35.4121714,17.4037714 35.5981714,17.6892 35.5981714,18.0003429 C35.5981714,18.3106286 35.4121714,18.5960571 35.0881714,18.7829143 L32.3993143,20.3352 C32.3213143,20.3806286 32.2707429,20.4440571 32.2596,20.5143429 C32.2467429,20.5846286 32.2716,20.6609143 32.3307429,20.7303429 L34.3261714,23.1097714 C34.5661714,23.3960571 34.6424571,23.7269143 34.5361714,24.0192 C34.4298857,24.3114857 34.1581714,24.5154857 33.7913143,24.5797714 L30.7313143,25.1180571 C30.6421714,25.1352 30.5753143,25.1763429 30.5393143,25.2389143 C30.5033143,25.3006286 30.5007429,25.3820571 30.5316,25.4669143 L31.5944571,28.3854857 C31.7221714,28.7360571 31.6810286,29.0737714 31.4804571,29.3120571 C31.2816,29.5494857 30.9584571,29.6497714 30.5881714,29.5846286 L27.5290286,29.0437714 C27.4398857,29.0292 27.3618857,29.0454857 27.3070286,29.0909143 C27.2521714,29.1372 27.2221714,29.2126286 27.2221714,29.3026286 L27.2221714,32.4097714 C27.2221714,32.7826286 27.0687429,33.0852 26.7978857,33.2403429 C26.5313143,33.3954857 26.1901714,33.3783429 25.8678857,33.1914857 L23.1764571,31.6383429 C23.0976,31.5929143 23.0178857,31.5809143 22.9510286,31.6057714 C22.8841714,31.6306286 22.8310286,31.6897714 22.8001714,31.7746286 L21.7373143,34.6949143 C21.6104571,35.0446286 21.3618857,35.2769143 21.0550286,35.3309143 C21.0104571,35.3386286 20.9658857,35.3429143 20.9213143,35.3429143" id="Fill-1" fill="#499bea"></path>
                                    <polyline id="Stroke-3" stroke="#499bea" stroke-linecap="round" points="10.7142857 19.2857143 15.8571429 23.5714286 25.2857143 11.5714286"></polyline>
                                </g>
                            </g>
                        </g>
                    </g>
                </g>
            </g>
        </g>
    </g>
</svg>